<svg xmlns="http://www.w3.org/2000/svg" xmlns:xlink="http://www.w3.org/1999/xlink" width="397" zoomAndPan="magnify" viewBox="0 0 297.75 298.499991" height="398" preserveAspectRatio="xMidYMid meet" version="1.0"><defs><g/><clipPath id="3432acb051"><path d="M 0.125 0 L 297.375 0 L 297.375 298 L 0.125 298 Z M 0.125 0 " clip-rule="nonzero"/></clipPath><clipPath id="e7f08340f4"><path d="M 3.117188 3.605469 L 297.265625 3.605469 L 297.265625 297.753906 L 3.117188 297.753906 Z M 3.117188 3.605469 " clip-rule="nonzero"/></clipPath><clipPath id="9b9dd65ffb"><path d="M 150.191406 3.605469 C 68.964844 3.605469 3.117188 69.453125 3.117188 150.679688 C 3.117188 231.90625 68.964844 297.753906 150.191406 297.753906 C 231.417969 297.753906 297.265625 231.90625 297.265625 150.679688 C 297.265625 69.453125 231.417969 3.605469 150.191406 3.605469 Z M 150.191406 3.605469 " clip-rule="nonzero"/></clipPath><clipPath id="69a94e8049"><path d="M 76 0 L 295.613281 0 L 295.613281 250 L 76 250 Z M 76 0 " clip-rule="nonzero"/></clipPath><clipPath id="12066408a7"><path d="M 4 117 L 133 117 L 133 289.644531 L 4 289.644531 Z M 4 117 " clip-rule="nonzero"/></clipPath><clipPath id="bb345a89a2"><path d="M 227 90 L 282 90 L 282 132.035156 L 227 132.035156 Z M 227 90 " clip-rule="nonzero"/></clipPath><clipPath id="a98bd6b63d"><path d="M 55 77.777344 L 241 77.777344 L 241 120 L 55 120 Z M 55 77.777344 " clip-rule="nonzero"/></clipPath><clipPath id="670c3cfdca"><path d="M 15 90 L 71 90 L 71 132.035156 L 15 132.035156 Z M 15 90 " clip-rule="nonzero"/></clipPath></defs><g clip-path="url(#3432acb051)"><path fill="#ffffff" d="M 0.125 0 L 297.375 0 L 297.375 298 L 0.125 298 Z M 0.125 0 " fill-opacity="1" fill-rule="nonzero"/></g><g clip-path="url(#e7f08340f4)"><g clip-path="url(#9b9dd65ffb)"><path fill="#fba4b6" d="M 3.117188 3.605469 L 297.265625 3.605469 L 297.265625 297.753906 L 3.117188 297.753906 Z M 3.117188 3.605469 " fill-opacity="1" fill-rule="nonzero"/></g></g><g clip-path="url(#69a94e8049)"><path fill="#ffffff" d="M 149.308594 0.125 C 151.785156 0.125 153.574219 0.101562 155.351562 0.125 C 159.710938 0.183594 164.023438 0.6875 168.335938 1.191406 C 179.53125 2.488281 190.335938 5.277344 200.890625 9.175781 C 214.609375 14.257812 227.25 21.277344 238.835938 30.203125 C 246.082031 35.777344 252.757812 41.96875 258.804688 48.828125 C 266.914062 58.015625 273.761719 68.078125 279.324219 79.007812 C 283.269531 86.761719 286.550781 94.78125 289.039062 103.097656 C 290.714844 108.683594 292.160156 114.347656 293.066406 120.152344 C 293.753906 124.535156 294.28125 128.914062 294.730469 133.320312 C 295.328125 139.34375 295.40625 145.363281 295.152344 151.375 C 294.914062 157.144531 294.28125 162.890625 293.351562 168.613281 C 289.351562 193.230469 279.625 215.3125 264.378906 235.003906 C 260.617188 239.859375 256.511719 244.410156 252.164062 248.757812 C 251.40625 249.503906 251.109375 249.21875 250.648438 248.574219 C 249.007812 246.316406 249.03125 246.363281 250.980469 244.355469 C 264.378906 230.53125 274.792969 214.773438 281.78125 196.773438 C 283.980469 191.109375 285.910156 185.363281 287.367188 179.476562 C 288.46875 174.992188 289.382812 170.460938 290.015625 165.875 C 290.75 160.574219 291.242188 155.261719 291.449219 149.90625 C 291.539062 147.40625 291.757812 144.882812 291.597656 142.394531 C 291.3125 138.011719 291.128906 133.628906 290.601562 129.261719 C 289.773438 122.320312 288.488281 115.507812 286.710938 108.761719 C 284.761719 101.386719 282.203125 94.230469 279.050781 87.265625 C 273.257812 74.453125 265.734375 62.742188 256.453125 52.179688 C 243.433594 37.347656 228.019531 25.683594 210.179688 17.21875 C 202.519531 13.582031 194.558594 10.691406 186.390625 8.488281 C 180.761719 6.972656 175.023438 5.78125 169.210938 5.058594 C 165.25 4.566406 161.292969 4.242188 157.335938 3.933594 C 153.035156 3.601562 148.734375 3.636719 144.457031 3.785156 C 140.671875 3.921875 136.875 4.253906 133.101562 4.761719 C 129.132812 5.300781 125.1875 5.929688 121.261719 6.710938 C 115.070312 7.9375 108.988281 9.613281 103.035156 11.710938 C 94.617188 14.671875 86.554688 18.386719 78.855469 22.894531 C 78.457031 23.136719 78.238281 23.148438 77.847656 22.792969 C 75.585938 20.648438 75.597656 20.417969 78.28125 18.902344 C 89.042969 12.824219 100.398438 8.179688 112.328125 4.957031 C 117.972656 3.429688 123.695312 2.238281 129.511719 1.480469 C 133.054688 1.019531 136.597656 0.734375 140.144531 0.367188 C 143.433594 0 146.714844 0.320312 149.308594 0.125 Z M 149.308594 0.125 " fill-opacity="1" fill-rule="nonzero"/></g><path fill="#ffffff" d="M 280.941406 143.574219 C 280.90625 148.394531 281.078125 151.972656 280.644531 155.515625 C 279.980469 160.90625 279.394531 166.296875 278.28125 171.644531 C 275.839844 183.308594 271.914062 194.410156 266.511719 205 C 261.683594 214.460938 255.753906 223.179688 248.777344 231.199219 C 239.097656 242.324219 227.867188 251.546875 215.066406 258.851562 C 206.71875 263.613281 197.964844 267.421875 188.765625 270.265625 C 182.171875 272.308594 175.484375 273.9375 168.648438 274.886719 C 164.746094 275.425781 160.8125 275.804688 156.867188 276.058594 C 152.976562 276.3125 149.089844 276.3125 145.214844 276.207031 C 139.683594 276.058594 134.191406 275.40625 128.71875 274.578125 C 123.546875 273.796875 118.453125 272.652344 113.453125 271.230469 C 103.550781 268.417969 94.101562 264.484375 85.121094 259.4375 C 74.796875 253.644531 65.4375 246.578125 56.992188 238.296875 C 55.203125 236.542969 55.214844 236.621094 57.222656 235.097656 C 58.050781 234.464844 58.460938 234.636719 59.117188 235.28125 C 67.832031 244.03125 77.617188 251.363281 88.457031 257.292969 C 97.933594 262.476562 107.910156 266.398438 118.394531 269.015625 C 124.601562 270.5625 130.863281 271.792969 137.265625 272.238281 C 139.855469 272.421875 142.4375 272.59375 145.03125 272.753906 C 147.035156 272.882812 149.03125 273.054688 151.039062 272.960938 C 158.164062 272.628906 165.273438 272.160156 172.304688 270.851562 C 179.234375 269.566406 186.035156 267.832031 192.644531 265.460938 C 204.410156 261.226562 215.355469 255.386719 225.425781 247.945312 C 234.199219 241.464844 242.023438 233.996094 248.917969 225.53125 C 255.304688 217.683594 260.707031 209.21875 265.101562 200.113281 C 268.371094 193.332031 270.953125 186.300781 273.003906 179.066406 C 274.65625 173.261719 275.828125 167.351562 276.6875 161.398438 C 277.109375 158.476562 277.167969 155.503906 277.445312 152.566406 C 277.765625 149.289062 277.730469 145.996094 277.671875 142.703125 C 277.546875 134.101562 276.527344 125.601562 274.691406 117.179688 C 272.671875 107.878906 269.5625 98.964844 265.570312 90.339844 C 264.070312 87.105469 262.40625 83.953125 260.59375 80.878906 C 260.089844 80.015625 260.261719 79.605469 260.925781 79.121094 C 261.109375 78.984375 261.304688 78.859375 261.453125 78.6875 C 262.371094 77.699219 262.875 77.953125 263.519531 79.101562 C 269.171875 89.035156 273.53125 99.496094 276.515625 110.515625 C 278.050781 116.207031 279.257812 121.964844 279.945312 127.835938 C 280.585938 133.46875 281.113281 139.125 280.941406 143.574219 Z M 280.941406 143.574219 " fill-opacity="1" fill-rule="nonzero"/><g clip-path="url(#12066408a7)"><path fill="#ffffff" d="M 7.246094 117.296875 C 8.164062 117.605469 9.023438 117.777344 9.757812 118.167969 C 11.03125 118.832031 10.757812 120.015625 10.539062 121.140625 C 9.679688 125.53125 9.183594 129.960938 8.851562 134.433594 C 8.519531 138.804688 8.234375 143.164062 8.359375 147.542969 C 8.496094 152.257812 8.875 156.960938 9.390625 161.652344 C 10.113281 168.257812 11.386719 174.75 13.027344 181.175781 C 15.527344 190.960938 19.164062 200.320312 23.753906 209.3125 C 30.851562 223.238281 40.019531 235.660156 51.203125 246.566406 C 60.285156 255.433594 70.378906 262.949219 81.484375 269.105469 C 89.9375 273.796875 98.757812 277.617188 108.003906 280.453125 C 114.070312 282.308594 120.195312 283.859375 126.46875 284.84375 C 127.042969 284.9375 127.628906 285.015625 128.203125 285.132812 C 129.109375 285.304688 129.96875 285.542969 130.484375 286.554688 C 130.988281 287.539062 131.769531 288.378906 132.296875 289.445312 C 90.820312 283.640625 56.972656 264.621094 32.34375 230.53125 C 7.796875 196.546875 0.167969 158.507812 7.246094 117.296875 Z M 7.246094 117.296875 " fill-opacity="1" fill-rule="nonzero"/></g><path fill="#ffffff" d="M 176.859375 16.082031 C 175.496094 17.046875 174.417969 17.722656 173.441406 18.523438 C 172.789062 19.0625 172.203125 18.664062 171.628906 18.570312 C 167.589844 17.871094 163.542969 17.445312 159.460938 17.113281 C 155.320312 16.78125 151.175781 16.496094 147.023438 16.65625 C 141.714844 16.863281 136.402344 17.273438 131.140625 18.042969 C 124.886719 18.949219 118.75 20.300781 112.707031 22.125 C 95.867188 27.21875 80.738281 35.464844 67.261719 46.765625 C 54.792969 57.214844 44.710938 69.625 36.933594 83.882812 C 31.757812 93.359375 27.800781 103.335938 25.347656 113.878906 C 25.050781 115.140625 24.488281 115.402344 23.464844 115.003906 C 22.882812 114.773438 22.285156 114.933594 21.46875 114.714844 C 30.578125 78.917969 50.363281 50.894531 82.148438 31.921875 C 111.421875 14.441406 143.046875 9.578125 176.859375 16.082031 Z M 176.859375 16.082031 " fill-opacity="1" fill-rule="nonzero"/><g clip-path="url(#bb345a89a2)"><path fill="#f4eee9" d="M 244.539062 90.335938 L 244.539062 122.921875 L 227.082031 132.15625 L 281.859375 132.15625 L 270.464844 111.246094 L 281.859375 90.335938 L 244.539062 90.335938 " fill-opacity="1" fill-rule="nonzero"/></g><path fill="#f4eee9" d="M 221.960938 123.273438 L 221.960938 130.796875 L 236.1875 123.273438 Z M 221.960938 123.273438 " fill-opacity="1" fill-rule="nonzero"/><g clip-path="url(#a98bd6b63d)"><path fill="#f4eee9" d="M 240.941406 77.792969 L 55.957031 77.792969 L 55.957031 119.679688 L 240.941406 119.679688 L 240.941406 77.792969 " fill-opacity="1" fill-rule="nonzero"/></g><g clip-path="url(#670c3cfdca)"><path fill="#f4eee9" d="M 52.363281 123.273438 L 52.363281 90.335938 L 15.585938 90.347656 L 26.980469 111.246094 L 15.59375 132.167969 L 70.351562 132.148438 L 52.363281 123.273438 " fill-opacity="1" fill-rule="nonzero"/></g><path fill="#f4eee9" d="M 75.527344 130.792969 L 75.582031 123.273438 L 61.078125 123.273438 Z M 75.527344 130.792969 " fill-opacity="1" fill-rule="nonzero"/><g fill="#000000" fill-opacity="1"><g transform="translate(101.997345, 105.636388)"><g><path d="M 5.34375 -9.578125 L 3.859375 -4.59375 C 3.835938 -4.507812 3.875 -4.46875 3.96875 -4.46875 L 6.75 -4.46875 C 6.84375 -4.46875 6.878906 -4.507812 6.859375 -4.59375 L 5.375 -9.578125 C 5.375 -9.585938 5.367188 -9.59375 5.359375 -9.59375 C 5.347656 -9.59375 5.34375 -9.585938 5.34375 -9.578125 Z M 3.28125 -2.65625 L 2.75 -0.859375 C 2.664062 -0.597656 2.515625 -0.390625 2.296875 -0.234375 C 2.085938 -0.078125 1.851562 0 1.59375 0 L 1.09375 0 C 0.875 0 0.695312 -0.0859375 0.5625 -0.265625 C 0.4375 -0.441406 0.410156 -0.640625 0.484375 -0.859375 L 3.90625 -10.671875 C 3.988281 -10.929688 4.140625 -11.140625 4.359375 -11.296875 C 4.578125 -11.453125 4.828125 -11.53125 5.109375 -11.53125 L 5.671875 -11.53125 C 5.941406 -11.53125 6.1875 -11.453125 6.40625 -11.296875 C 6.632812 -11.140625 6.789062 -10.929688 6.875 -10.671875 L 10.28125 -0.859375 C 10.351562 -0.640625 10.328125 -0.441406 10.203125 -0.265625 C 10.078125 -0.0859375 9.90625 0 9.6875 0 L 9.109375 0 C 8.847656 0 8.613281 -0.078125 8.40625 -0.234375 C 8.195312 -0.390625 8.050781 -0.597656 7.96875 -0.859375 L 7.421875 -2.65625 C 7.398438 -2.738281 7.34375 -2.78125 7.25 -2.78125 L 3.453125 -2.78125 C 3.359375 -2.78125 3.300781 -2.738281 3.28125 -2.65625 Z M 3.28125 -2.65625 "/></g></g></g><g fill="#000000" fill-opacity="1"><g transform="translate(112.760771, 105.636388)"><g><path d="M 4.046875 -1.40625 C 4.960938 -1.40625 5.421875 -1.710938 5.421875 -2.328125 C 5.421875 -2.609375 5.320312 -2.816406 5.125 -2.953125 C 4.9375 -3.097656 4.566406 -3.21875 4.015625 -3.3125 C 2.859375 -3.507812 2.03125 -3.820312 1.53125 -4.25 C 1.03125 -4.675781 0.78125 -5.257812 0.78125 -6 C 0.78125 -6.726562 1.066406 -7.304688 1.640625 -7.734375 C 2.210938 -8.160156 3.046875 -8.375 4.140625 -8.375 C 4.960938 -8.375 5.75 -8.265625 6.5 -8.046875 C 6.707031 -7.984375 6.859375 -7.847656 6.953125 -7.640625 C 7.054688 -7.429688 7.082031 -7.21875 7.03125 -7 C 6.976562 -6.800781 6.859375 -6.65625 6.671875 -6.5625 C 6.484375 -6.46875 6.289062 -6.457031 6.09375 -6.53125 C 5.5 -6.726562 4.882812 -6.828125 4.25 -6.828125 C 3.28125 -6.828125 2.796875 -6.539062 2.796875 -5.96875 C 2.796875 -5.695312 2.898438 -5.488281 3.109375 -5.34375 C 3.316406 -5.195312 3.6875 -5.082031 4.21875 -5 C 5.382812 -4.832031 6.21875 -4.53125 6.71875 -4.09375 C 7.226562 -3.65625 7.484375 -3.054688 7.484375 -2.296875 C 7.484375 -1.535156 7.191406 -0.9375 6.609375 -0.5 C 6.023438 -0.0625 5.203125 0.15625 4.140625 0.15625 C 3.160156 0.15625 2.273438 0.00390625 1.484375 -0.296875 C 1.265625 -0.378906 1.109375 -0.523438 1.015625 -0.734375 C 0.921875 -0.953125 0.898438 -1.175781 0.953125 -1.40625 C 0.992188 -1.601562 1.101562 -1.742188 1.28125 -1.828125 C 1.46875 -1.910156 1.65625 -1.910156 1.84375 -1.828125 C 2.539062 -1.546875 3.273438 -1.40625 4.046875 -1.40625 Z M 4.046875 -1.40625 "/></g></g></g><g fill="#000000" fill-opacity="1"><g transform="translate(121.014831, 105.636388)"><g><path d="M 4.046875 -1.40625 C 4.960938 -1.40625 5.421875 -1.710938 5.421875 -2.328125 C 5.421875 -2.609375 5.320312 -2.816406 5.125 -2.953125 C 4.9375 -3.097656 4.566406 -3.21875 4.015625 -3.3125 C 2.859375 -3.507812 2.03125 -3.820312 1.53125 -4.25 C 1.03125 -4.675781 0.78125 -5.257812 0.78125 -6 C 0.78125 -6.726562 1.066406 -7.304688 1.640625 -7.734375 C 2.210938 -8.160156 3.046875 -8.375 4.140625 -8.375 C 4.960938 -8.375 5.75 -8.265625 6.5 -8.046875 C 6.707031 -7.984375 6.859375 -7.847656 6.953125 -7.640625 C 7.054688 -7.429688 7.082031 -7.21875 7.03125 -7 C 6.976562 -6.800781 6.859375 -6.65625 6.671875 -6.5625 C 6.484375 -6.46875 6.289062 -6.457031 6.09375 -6.53125 C 5.5 -6.726562 4.882812 -6.828125 4.25 -6.828125 C 3.28125 -6.828125 2.796875 -6.539062 2.796875 -5.96875 C 2.796875 -5.695312 2.898438 -5.488281 3.109375 -5.34375 C 3.316406 -5.195312 3.6875 -5.082031 4.21875 -5 C 5.382812 -4.832031 6.21875 -4.53125 6.71875 -4.09375 C 7.226562 -3.65625 7.484375 -3.054688 7.484375 -2.296875 C 7.484375 -1.535156 7.191406 -0.9375 6.609375 -0.5 C 6.023438 -0.0625 5.203125 0.15625 4.140625 0.15625 C 3.160156 0.15625 2.273438 0.00390625 1.484375 -0.296875 C 1.265625 -0.378906 1.109375 -0.523438 1.015625 -0.734375 C 0.921875 -0.953125 0.898438 -1.175781 0.953125 -1.40625 C 0.992188 -1.601562 1.101562 -1.742188 1.28125 -1.828125 C 1.46875 -1.910156 1.65625 -1.910156 1.84375 -1.828125 C 2.539062 -1.546875 3.273438 -1.40625 4.046875 -1.40625 Z M 4.046875 -1.40625 "/></g></g></g><g fill="#000000" fill-opacity="1"><g transform="translate(129.268892, 105.636388)"><g><path d="M 4.53125 -6.890625 C 3.976562 -6.890625 3.53125 -6.71875 3.1875 -6.375 C 2.84375 -6.03125 2.648438 -5.535156 2.609375 -4.890625 C 2.609375 -4.804688 2.648438 -4.765625 2.734375 -4.765625 L 6.296875 -4.765625 C 6.378906 -4.765625 6.421875 -4.804688 6.421875 -4.890625 C 6.390625 -5.535156 6.207031 -6.03125 5.875 -6.375 C 5.550781 -6.71875 5.101562 -6.890625 4.53125 -6.890625 Z M 4.71875 0.15625 C 3.476562 0.15625 2.46875 -0.222656 1.6875 -0.984375 C 0.914062 -1.753906 0.53125 -2.796875 0.53125 -4.109375 C 0.53125 -5.429688 0.890625 -6.472656 1.609375 -7.234375 C 2.328125 -7.992188 3.296875 -8.375 4.515625 -8.375 C 5.710938 -8.375 6.65625 -8.015625 7.34375 -7.296875 C 8.03125 -6.585938 8.378906 -5.570312 8.390625 -4.25 C 8.390625 -4 8.289062 -3.785156 8.09375 -3.609375 C 7.90625 -3.441406 7.6875 -3.359375 7.4375 -3.359375 L 2.734375 -3.359375 C 2.628906 -3.359375 2.585938 -3.3125 2.609375 -3.21875 C 2.691406 -2.644531 2.941406 -2.1875 3.359375 -1.84375 C 3.773438 -1.507812 4.289062 -1.34375 4.90625 -1.34375 C 5.457031 -1.34375 6.003906 -1.4375 6.546875 -1.625 C 6.734375 -1.695312 6.921875 -1.691406 7.109375 -1.609375 C 7.296875 -1.523438 7.421875 -1.390625 7.484375 -1.203125 C 7.554688 -0.992188 7.539062 -0.789062 7.4375 -0.59375 C 7.34375 -0.394531 7.195312 -0.257812 7 -0.1875 C 6.300781 0.0390625 5.539062 0.15625 4.71875 0.15625 Z M 4.71875 0.15625 "/></g></g></g><g fill="#000000" fill-opacity="1"><g transform="translate(138.248928, 105.636388)"><g><path d="M 2.40625 -2.640625 L 2.40625 -6.234375 C 2.40625 -6.316406 2.363281 -6.359375 2.28125 -6.359375 L 1.453125 -6.359375 C 1.242188 -6.359375 1.0625 -6.4375 0.90625 -6.59375 C 0.757812 -6.75 0.6875 -6.929688 0.6875 -7.140625 C 0.6875 -7.347656 0.757812 -7.523438 0.90625 -7.671875 C 1.0625 -7.828125 1.242188 -7.90625 1.453125 -7.90625 L 2.28125 -7.90625 C 2.363281 -7.90625 2.40625 -7.953125 2.40625 -8.046875 L 2.40625 -10 C 2.40625 -10.238281 2.492188 -10.445312 2.671875 -10.625 C 2.847656 -10.8125 3.054688 -10.90625 3.296875 -10.90625 L 3.609375 -10.90625 C 3.847656 -10.90625 4.054688 -10.8125 4.234375 -10.625 C 4.410156 -10.445312 4.5 -10.238281 4.5 -10 L 4.5 -8.046875 C 4.5 -7.953125 4.546875 -7.90625 4.640625 -7.90625 L 6.578125 -7.90625 C 6.785156 -7.90625 6.960938 -7.828125 7.109375 -7.671875 C 7.253906 -7.523438 7.328125 -7.347656 7.328125 -7.140625 C 7.328125 -6.929688 7.253906 -6.75 7.109375 -6.59375 C 6.960938 -6.4375 6.785156 -6.359375 6.578125 -6.359375 L 4.640625 -6.359375 C 4.546875 -6.359375 4.5 -6.316406 4.5 -6.234375 L 4.5 -3 C 4.5 -2.375 4.578125 -1.953125 4.734375 -1.734375 C 4.890625 -1.523438 5.175781 -1.421875 5.59375 -1.421875 C 5.75 -1.421875 5.972656 -1.441406 6.265625 -1.484375 C 6.472656 -1.515625 6.660156 -1.472656 6.828125 -1.359375 C 7.003906 -1.253906 7.109375 -1.109375 7.140625 -0.921875 C 7.179688 -0.691406 7.144531 -0.484375 7.03125 -0.296875 C 6.914062 -0.117188 6.75 -0.0078125 6.53125 0.03125 C 6.050781 0.113281 5.597656 0.15625 5.171875 0.15625 C 4.203125 0.15625 3.5 -0.0546875 3.0625 -0.484375 C 2.625 -0.921875 2.40625 -1.640625 2.40625 -2.640625 Z M 2.40625 -2.640625 "/></g></g></g><g fill="#000000" fill-opacity="1"><g transform="translate(146.660813, 105.636388)"><g/></g></g><g fill="#000000" fill-opacity="1"><g transform="translate(151.458585, 105.636388)"><g><path d="M 6.5 0.15625 C 4.695312 0.15625 3.25 -0.375 2.15625 -1.4375 C 1.070312 -2.507812 0.53125 -3.953125 0.53125 -5.765625 C 0.53125 -7.585938 1.0625 -9.03125 2.125 -10.09375 C 3.195312 -11.15625 4.65625 -11.6875 6.5 -11.6875 C 7.539062 -11.6875 8.515625 -11.484375 9.421875 -11.078125 C 9.640625 -10.972656 9.785156 -10.796875 9.859375 -10.546875 C 9.941406 -10.304688 9.9375 -10.070312 9.84375 -9.84375 C 9.757812 -9.632812 9.601562 -9.488281 9.375 -9.40625 C 9.15625 -9.332031 8.945312 -9.347656 8.75 -9.453125 C 8.09375 -9.753906 7.410156 -9.90625 6.703125 -9.90625 C 5.503906 -9.90625 4.550781 -9.53125 3.84375 -8.78125 C 3.144531 -8.039062 2.796875 -7.035156 2.796875 -5.765625 C 2.796875 -4.503906 3.15625 -3.5 3.875 -2.75 C 4.601562 -2 5.546875 -1.625 6.703125 -1.625 C 7.410156 -1.625 8.09375 -1.773438 8.75 -2.078125 C 8.945312 -2.179688 9.15625 -2.191406 9.375 -2.109375 C 9.601562 -2.035156 9.757812 -1.894531 9.84375 -1.6875 C 9.9375 -1.457031 9.941406 -1.21875 9.859375 -0.96875 C 9.785156 -0.726562 9.640625 -0.554688 9.421875 -0.453125 C 8.515625 -0.046875 7.539062 0.15625 6.5 0.15625 Z M 6.5 0.15625 "/></g></g></g><g fill="#000000" fill-opacity="1"><g transform="translate(162.300924, 105.636388)"><g><path d="M 5.203125 -3.9375 C 4.367188 -3.9375 3.726562 -3.796875 3.28125 -3.515625 C 2.84375 -3.234375 2.625 -2.867188 2.625 -2.421875 C 2.625 -2.078125 2.722656 -1.8125 2.921875 -1.625 C 3.117188 -1.4375 3.394531 -1.34375 3.75 -1.34375 C 4.34375 -1.34375 4.84375 -1.535156 5.25 -1.921875 C 5.664062 -2.316406 5.875 -2.804688 5.875 -3.390625 L 5.875 -3.796875 C 5.875 -3.890625 5.832031 -3.9375 5.75 -3.9375 Z M 3.21875 0.15625 C 2.445312 0.15625 1.832031 -0.0546875 1.375 -0.484375 C 0.914062 -0.910156 0.6875 -1.503906 0.6875 -2.265625 C 0.6875 -3.179688 1.070312 -3.914062 1.84375 -4.46875 C 2.625 -5.019531 3.742188 -5.296875 5.203125 -5.296875 L 5.75 -5.296875 C 5.832031 -5.296875 5.875 -5.335938 5.875 -5.421875 C 5.863281 -5.941406 5.75 -6.304688 5.53125 -6.515625 C 5.3125 -6.734375 4.921875 -6.84375 4.359375 -6.84375 C 3.617188 -6.84375 2.890625 -6.707031 2.171875 -6.4375 C 1.972656 -6.375 1.785156 -6.390625 1.609375 -6.484375 C 1.441406 -6.578125 1.335938 -6.71875 1.296875 -6.90625 C 1.253906 -7.125 1.285156 -7.332031 1.390625 -7.53125 C 1.492188 -7.726562 1.648438 -7.867188 1.859375 -7.953125 C 2.691406 -8.234375 3.539062 -8.375 4.40625 -8.375 C 5.65625 -8.375 6.554688 -8.128906 7.109375 -7.640625 C 7.660156 -7.148438 7.9375 -6.359375 7.9375 -5.265625 L 7.9375 -2.21875 C 7.9375 -1.78125 7.96875 -1.34375 8.03125 -0.90625 C 8.0625 -0.664062 8 -0.453125 7.84375 -0.265625 C 7.695312 -0.0859375 7.507812 0 7.28125 0 L 7.125 0 C 6.863281 0 6.628906 -0.0820312 6.421875 -0.25 C 6.222656 -0.414062 6.113281 -0.628906 6.09375 -0.890625 C 6.082031 -0.960938 6.078125 -1.0625 6.078125 -1.1875 C 6.078125 -1.207031 6.070312 -1.21875 6.0625 -1.21875 C 6.039062 -1.21875 6.03125 -1.210938 6.03125 -1.203125 C 5.738281 -0.773438 5.34375 -0.441406 4.84375 -0.203125 C 4.34375 0.0351562 3.800781 0.15625 3.21875 0.15625 Z M 3.21875 0.15625 "/></g></g></g><g fill="#000000" fill-opacity="1"><g transform="translate(171.249404, 105.636388)"><g><path d="M 3.1875 -3.578125 L 3.1875 -0.90625 C 3.1875 -0.65625 3.097656 -0.441406 2.921875 -0.265625 C 2.742188 -0.0859375 2.535156 0 2.296875 0 L 1.984375 0 C 1.742188 0 1.535156 -0.0859375 1.359375 -0.265625 C 1.179688 -0.441406 1.09375 -0.65625 1.09375 -0.90625 L 1.09375 -7.3125 C 1.09375 -7.550781 1.179688 -7.757812 1.359375 -7.9375 C 1.535156 -8.125 1.742188 -8.21875 1.984375 -8.21875 L 2.171875 -8.21875 C 2.410156 -8.21875 2.613281 -8.125 2.78125 -7.9375 C 2.957031 -7.757812 3.050781 -7.550781 3.0625 -7.3125 L 3.078125 -6.65625 C 3.078125 -6.644531 3.082031 -6.640625 3.09375 -6.640625 C 3.101562 -6.640625 3.113281 -6.644531 3.125 -6.65625 C 3.894531 -7.582031 4.867188 -8.132812 6.046875 -8.3125 C 6.265625 -8.34375 6.457031 -8.273438 6.625 -8.109375 C 6.800781 -7.953125 6.890625 -7.757812 6.890625 -7.53125 C 6.890625 -7.300781 6.800781 -7.101562 6.625 -6.9375 C 6.457031 -6.769531 6.257812 -6.671875 6.03125 -6.640625 C 5.113281 -6.492188 4.410156 -6.15625 3.921875 -5.625 C 3.429688 -5.09375 3.1875 -4.410156 3.1875 -3.578125 Z M 3.1875 -3.578125 "/></g></g></g><g fill="#000000" fill-opacity="1"><g transform="translate(178.887968, 105.636388)"><g><path d="M 4.484375 -6.765625 C 3.878906 -6.765625 3.410156 -6.539062 3.078125 -6.09375 C 2.753906 -5.65625 2.59375 -4.992188 2.59375 -4.109375 C 2.59375 -3.253906 2.769531 -2.597656 3.125 -2.140625 C 3.476562 -1.679688 3.929688 -1.453125 4.484375 -1.453125 C 5.046875 -1.453125 5.492188 -1.675781 5.828125 -2.125 C 6.171875 -2.570312 6.34375 -3.207031 6.34375 -4.03125 L 6.34375 -4.1875 C 6.34375 -4.988281 6.171875 -5.617188 5.828125 -6.078125 C 5.492188 -6.535156 5.046875 -6.765625 4.484375 -6.765625 Z M 3.90625 0.15625 C 2.925781 0.15625 2.128906 -0.210938 1.515625 -0.953125 C 0.910156 -1.691406 0.609375 -2.742188 0.609375 -4.109375 C 0.609375 -5.492188 0.898438 -6.550781 1.484375 -7.28125 C 2.078125 -8.007812 2.882812 -8.375 3.90625 -8.375 C 4.882812 -8.375 5.679688 -7.976562 6.296875 -7.1875 C 6.296875 -7.164062 6.304688 -7.15625 6.328125 -7.15625 C 6.335938 -7.15625 6.34375 -7.160156 6.34375 -7.171875 L 6.34375 -10.953125 C 6.34375 -11.191406 6.429688 -11.398438 6.609375 -11.578125 C 6.796875 -11.753906 7.007812 -11.84375 7.25 -11.84375 L 7.515625 -11.84375 C 7.753906 -11.84375 7.960938 -11.753906 8.140625 -11.578125 C 8.316406 -11.398438 8.40625 -11.191406 8.40625 -10.953125 L 8.40625 -0.90625 C 8.40625 -0.65625 8.316406 -0.441406 8.140625 -0.265625 C 7.960938 -0.0859375 7.753906 0 7.515625 0 L 7.375 0 C 7.125 0 6.910156 -0.0820312 6.734375 -0.25 C 6.566406 -0.425781 6.472656 -0.644531 6.453125 -0.90625 L 6.4375 -1.140625 C 6.4375 -1.148438 6.429688 -1.15625 6.421875 -1.15625 C 6.398438 -1.15625 6.390625 -1.148438 6.390625 -1.140625 C 5.765625 -0.273438 4.9375 0.15625 3.90625 0.15625 Z M 3.90625 0.15625 "/></g></g></g></svg>