<svg xmlns="http://www.w3.org/2000/svg" xmlns:xlink="http://www.w3.org/1999/xlink" width="816" zoomAndPan="magnify" viewBox="0 0 612 394.499988" height="526" preserveAspectRatio="xMidYMid meet" version="1.0"><defs><g/><clipPath id="a09acefff2"><path d="M 0.386719 0 L 611.613281 0 L 611.613281 394 L 0.386719 394 Z M 0.386719 0 " clip-rule="nonzero"/></clipPath><clipPath id="f6d574ace8"><path d="M 9 0 L 30 0 L 30 393.25 L 9 393.25 Z M 9 0 " clip-rule="nonzero"/></clipPath><clipPath id="02fc2ce79b"><path d="M 582 0 L 603 0 L 603 393.25 L 582 393.25 Z M 582 0 " clip-rule="nonzero"/></clipPath><clipPath id="8a47c1f0ac"><path d="M 490.632812 67.511719 L 573.777344 67.511719 L 573.777344 150.65625 L 490.632812 150.65625 Z M 490.632812 67.511719 " clip-rule="nonzero"/></clipPath><clipPath id="f0e609c660"><path d="M 447.632812 40.667969 L 498.570312 40.667969 L 498.570312 91.601562 L 447.632812 91.601562 Z M 447.632812 40.667969 " clip-rule="nonzero"/></clipPath></defs><g clip-path="url(#a09acefff2)"><path fill="#ffffff" d="M 0.386719 0 L 611.613281 0 L 611.613281 394 L 0.386719 394 Z M 0.386719 0 " fill-opacity="1" fill-rule="nonzero"/></g><path fill="#f7941d" d="M 10.605469 1.484375 L 602.390625 1.484375 L 602.390625 392.039062 L 10.605469 392.039062 Z M 10.605469 1.484375 " fill-opacity="1" fill-rule="nonzero"/><path fill="#f7b542" d="M 28.21875 20.863281 L 583.585938 20.863281 L 583.585938 372.660156 L 28.21875 372.660156 Z M 28.21875 20.863281 " fill-opacity="1" fill-rule="nonzero"/><g clip-path="url(#f6d574ace8)"><path fill="#082a44" d="M 10.605469 393.277344 C 10.308594 393.277344 10.011719 393.175781 9.761719 392.953125 C 9.269531 392.484375 9.21875 391.71875 9.6875 391.199219 L 26.980469 372.167969 L 26.980469 21.355469 L 9.6875 2.324219 C 9.21875 1.828125 9.269531 1.039062 9.761719 0.570312 C 10.257812 0.125 11.050781 0.148438 11.519531 0.644531 L 29.457031 20.390625 L 29.457031 373.132812 L 11.519531 392.878906 C 11.273438 393.152344 10.949219 393.277344 10.605469 393.277344 Z M 10.605469 393.277344 " fill-opacity="1" fill-rule="nonzero"/></g><g clip-path="url(#02fc2ce79b)"><path fill="#082a44" d="M 601.203125 393.277344 C 600.855469 393.277344 600.535156 393.128906 600.289062 392.878906 L 582.351562 373.132812 L 582.351562 20.390625 L 600.289062 0.644531 C 600.757812 0.148438 601.523438 0.0976562 602.042969 0.570312 C 602.539062 1.039062 602.589844 1.804688 602.117188 2.324219 L 584.824219 21.355469 L 584.824219 372.191406 L 602.117188 391.226562 C 602.589844 391.71875 602.539062 392.511719 602.042969 392.980469 C 601.796875 393.175781 601.5 393.277344 601.203125 393.277344 Z M 601.203125 393.277344 " fill-opacity="1" fill-rule="nonzero"/></g><path fill="#082a44" d="M 583.585938 22.097656 L 28.21875 22.097656 C 27.527344 22.097656 26.980469 21.554688 26.980469 20.863281 C 26.980469 20.167969 27.527344 19.625 28.21875 19.625 L 583.585938 19.625 C 584.28125 19.625 584.824219 20.167969 584.824219 20.863281 C 584.824219 21.554688 584.28125 22.097656 583.585938 22.097656 Z M 583.585938 22.097656 " fill-opacity="1" fill-rule="nonzero"/><path fill="#fff7d1" d="M 181.832031 35.171875 L 426.042969 35.171875 L 426.042969 69.355469 L 181.832031 69.355469 Z M 181.832031 35.171875 " fill-opacity="1" fill-rule="nonzero"/><path fill="#ef4136" d="M 194.84375 52.277344 C 194.84375 52.75 194.753906 53.203125 194.574219 53.640625 C 194.390625 54.074219 194.136719 54.460938 193.800781 54.792969 C 193.464844 55.128906 193.082031 55.382812 192.644531 55.566406 C 192.207031 55.746094 191.753906 55.835938 191.28125 55.835938 C 190.808594 55.835938 190.355469 55.746094 189.917969 55.566406 C 189.480469 55.382812 189.097656 55.128906 188.761719 54.792969 C 188.429688 54.460938 188.171875 54.074219 187.992188 53.640625 C 187.808594 53.203125 187.71875 52.75 187.71875 52.277344 C 187.71875 51.804688 187.808594 51.351562 187.992188 50.914062 C 188.171875 50.480469 188.429688 50.09375 188.761719 49.761719 C 189.097656 49.425781 189.480469 49.167969 189.917969 48.988281 C 190.355469 48.808594 190.808594 48.71875 191.28125 48.71875 C 191.753906 48.71875 192.207031 48.808594 192.644531 48.988281 C 193.082031 49.167969 193.464844 49.425781 193.800781 49.761719 C 194.136719 50.09375 194.390625 50.480469 194.574219 50.914062 C 194.753906 51.351562 194.84375 51.804688 194.84375 52.277344 Z M 194.84375 52.277344 " fill-opacity="1" fill-rule="nonzero"/><path fill="#ef4136" d="M 417.53125 52.277344 C 417.53125 52.75 417.441406 53.203125 417.261719 53.640625 C 417.078125 54.074219 416.820312 54.460938 416.488281 54.792969 C 416.152344 55.128906 415.769531 55.382812 415.332031 55.566406 C 414.894531 55.746094 414.441406 55.835938 413.96875 55.835938 C 413.496094 55.835938 413.042969 55.746094 412.605469 55.566406 C 412.167969 55.382812 411.785156 55.128906 411.449219 54.792969 C 411.117188 54.460938 410.859375 54.074219 410.675781 53.640625 C 410.496094 53.203125 410.40625 52.75 410.40625 52.277344 C 410.40625 51.804688 410.496094 51.351562 410.675781 50.914062 C 410.859375 50.480469 411.117188 50.09375 411.449219 49.761719 C 411.785156 49.425781 412.167969 49.167969 412.605469 48.988281 C 413.042969 48.808594 413.496094 48.71875 413.96875 48.71875 C 414.441406 48.71875 414.894531 48.808594 415.332031 48.988281 C 415.769531 49.167969 416.152344 49.425781 416.488281 49.761719 C 416.820312 50.09375 417.078125 50.480469 417.261719 50.914062 C 417.441406 51.351562 417.53125 51.804688 417.53125 52.277344 Z M 417.53125 52.277344 " fill-opacity="1" fill-rule="nonzero"/><path fill="#082a44" d="M 427.253906 70.59375 L 181.832031 70.59375 C 181.136719 70.59375 180.59375 70.046875 180.59375 69.355469 C 180.59375 68.664062 181.136719 68.121094 181.832031 68.121094 L 424.804688 68.121094 L 424.804688 35.199219 C 424.804688 34.503906 425.347656 33.960938 426.042969 33.960938 C 426.734375 33.960938 427.277344 34.503906 427.277344 35.199219 L 427.277344 70.59375 Z M 427.253906 70.59375 " fill-opacity="1" fill-rule="nonzero"/><g clip-path="url(#8a47c1f0ac)"><path fill="#ffffff" d="M 573.777344 109.082031 C 573.777344 110.445312 573.710938 111.800781 573.578125 113.15625 C 573.445312 114.511719 573.246094 115.859375 572.980469 117.191406 C 572.714844 118.527344 572.382812 119.847656 571.988281 121.152344 C 571.59375 122.453125 571.136719 123.734375 570.613281 124.992188 C 570.09375 126.25 569.511719 127.480469 568.871094 128.679688 C 568.226562 129.878906 567.527344 131.046875 566.773438 132.179688 C 566.015625 133.3125 565.207031 134.402344 564.34375 135.457031 C 563.476562 136.507812 562.566406 137.515625 561.601562 138.480469 C 560.640625 139.441406 559.632812 140.355469 558.578125 141.21875 C 557.527344 142.082031 556.433594 142.890625 555.300781 143.648438 C 554.171875 144.40625 553.003906 145.105469 551.804688 145.746094 C 550.601562 146.386719 549.375 146.96875 548.117188 147.492188 C 546.859375 148.011719 545.578125 148.46875 544.273438 148.863281 C 542.972656 149.261719 541.652344 149.589844 540.316406 149.855469 C 538.980469 150.121094 537.636719 150.320312 536.28125 150.453125 C 534.925781 150.589844 533.566406 150.65625 532.207031 150.65625 C 530.84375 150.65625 529.488281 150.589844 528.132812 150.453125 C 526.777344 150.320312 525.429688 150.121094 524.097656 149.855469 C 522.761719 149.589844 521.441406 149.261719 520.136719 148.863281 C 518.835938 148.46875 517.554688 148.011719 516.296875 147.492188 C 515.039062 146.96875 513.808594 146.386719 512.609375 145.746094 C 511.410156 145.105469 510.242188 144.40625 509.109375 143.648438 C 507.976562 142.890625 506.886719 142.082031 505.832031 141.21875 C 504.78125 140.355469 503.773438 139.441406 502.808594 138.480469 C 501.847656 137.515625 500.933594 136.507812 500.070312 135.457031 C 499.207031 134.402344 498.398438 133.3125 497.640625 132.179688 C 496.882812 131.046875 496.183594 129.878906 495.542969 128.679688 C 494.902344 127.480469 494.320312 126.25 493.796875 124.992188 C 493.277344 123.734375 492.820312 122.453125 492.425781 121.152344 C 492.027344 119.847656 491.699219 118.527344 491.433594 117.191406 C 491.167969 115.859375 490.96875 114.511719 490.835938 113.15625 C 490.699219 111.800781 490.632812 110.445312 490.632812 109.082031 C 490.632812 107.722656 490.699219 106.363281 490.835938 105.007812 C 490.96875 103.652344 491.167969 102.308594 491.433594 100.972656 C 491.699219 99.636719 492.027344 98.316406 492.425781 97.015625 C 492.820312 95.710938 493.277344 94.433594 493.796875 93.171875 C 494.320312 91.914062 494.902344 90.6875 495.542969 89.484375 C 496.183594 88.285156 496.882812 87.117188 497.640625 85.988281 C 498.398438 84.855469 499.207031 83.761719 500.070312 82.710938 C 500.933594 81.65625 501.847656 80.648438 502.808594 79.6875 C 503.773438 78.722656 504.78125 77.8125 505.832031 76.945312 C 506.886719 76.082031 507.976562 75.273438 509.109375 74.515625 C 510.242188 73.761719 511.410156 73.0625 512.609375 72.417969 C 513.808594 71.777344 515.039062 71.195312 516.296875 70.675781 C 517.554688 70.152344 518.835938 69.695312 520.136719 69.300781 C 521.441406 68.90625 522.761719 68.574219 524.097656 68.308594 C 525.429688 68.042969 526.777344 67.84375 528.132812 67.710938 C 529.488281 67.578125 530.84375 67.511719 532.207031 67.511719 C 533.566406 67.511719 534.925781 67.578125 536.28125 67.710938 C 537.636719 67.84375 538.980469 68.042969 540.316406 68.308594 C 541.652344 68.574219 542.972656 68.90625 544.273438 69.300781 C 545.578125 69.695312 546.859375 70.152344 548.117188 70.675781 C 549.375 71.195312 550.601562 71.777344 551.804688 72.417969 C 553.003906 73.0625 554.171875 73.761719 555.300781 74.515625 C 556.433594 75.273438 557.527344 76.082031 558.578125 76.945312 C 559.632812 77.8125 560.640625 78.722656 561.601562 79.6875 C 562.566406 80.648438 563.476562 81.65625 564.34375 82.710938 C 565.207031 83.761719 566.015625 84.855469 566.773438 85.988281 C 567.527344 87.117188 568.226562 88.285156 568.871094 89.484375 C 569.511719 90.6875 570.09375 91.914062 570.613281 93.171875 C 571.136719 94.429688 571.59375 95.710938 571.988281 97.015625 C 572.382812 98.316406 572.714844 99.636719 572.980469 100.972656 C 573.246094 102.308594 573.445312 103.652344 573.578125 105.007812 C 573.710938 106.363281 573.777344 107.722656 573.777344 109.082031 Z M 573.777344 109.082031 " fill-opacity="1" fill-rule="nonzero"/></g><g fill="#000000" fill-opacity="1"><g transform="translate(255.673745, 56.851593)"><g><path d="M 6.5 -2.28125 C 7.382812 -2.28125 8.050781 -2.46875 8.5 -2.84375 C 8.957031 -3.226562 9.1875 -3.769531 9.1875 -4.46875 C 9.1875 -5.09375 9 -5.59375 8.625 -5.96875 C 8.257812 -6.351562 7.597656 -6.6875 6.640625 -6.96875 C 4.734375 -7.539062 3.347656 -8.238281 2.484375 -9.0625 C 1.628906 -9.894531 1.203125 -10.914062 1.203125 -12.125 C 1.203125 -13.457031 1.695312 -14.523438 2.6875 -15.328125 C 3.6875 -16.140625 5.078125 -16.546875 6.859375 -16.546875 C 8.191406 -16.546875 9.5 -16.34375 10.78125 -15.9375 C 11.125 -15.832031 11.375 -15.617188 11.53125 -15.296875 C 11.6875 -14.984375 11.71875 -14.644531 11.625 -14.28125 C 11.550781 -13.96875 11.359375 -13.738281 11.046875 -13.59375 C 10.742188 -13.457031 10.4375 -13.441406 10.125 -13.546875 C 9.101562 -13.910156 8.046875 -14.09375 6.953125 -14.09375 C 6.117188 -14.09375 5.472656 -13.910156 5.015625 -13.546875 C 4.566406 -13.191406 4.34375 -12.71875 4.34375 -12.125 C 4.34375 -11.0625 5.109375 -10.316406 6.640625 -9.890625 C 8.722656 -9.304688 10.191406 -8.59375 11.046875 -7.75 C 11.910156 -6.914062 12.34375 -5.835938 12.34375 -4.515625 C 12.34375 -2.984375 11.832031 -1.8125 10.8125 -1 C 9.800781 -0.1875 8.335938 0.21875 6.421875 0.21875 C 5.035156 0.21875 3.660156 -0.0664062 2.296875 -0.640625 C 1.953125 -0.796875 1.707031 -1.046875 1.5625 -1.390625 C 1.425781 -1.734375 1.421875 -2.082031 1.546875 -2.4375 L 1.5625 -2.53125 C 1.664062 -2.820312 1.867188 -3.023438 2.171875 -3.140625 C 2.484375 -3.253906 2.78125 -3.234375 3.0625 -3.078125 C 4.175781 -2.546875 5.320312 -2.28125 6.5 -2.28125 Z M 6.5 -2.28125 "/></g></g></g><g fill="#000000" fill-opacity="1"><g transform="translate(269.220581, 56.851593)"><g><path d="M 6.53125 -9.640625 C 5.632812 -9.640625 4.929688 -9.3125 4.421875 -8.65625 C 3.921875 -8.007812 3.671875 -7.0625 3.671875 -5.8125 C 3.671875 -4.5625 3.921875 -3.609375 4.421875 -2.953125 C 4.929688 -2.304688 5.632812 -1.984375 6.53125 -1.984375 C 7.4375 -1.984375 8.140625 -2.304688 8.640625 -2.953125 C 9.148438 -3.609375 9.40625 -4.5625 9.40625 -5.8125 C 9.40625 -7.0625 9.148438 -8.007812 8.640625 -8.65625 C 8.140625 -9.3125 7.4375 -9.640625 6.53125 -9.640625 Z M 10.75 -1.40625 C 9.707031 -0.320312 8.300781 0.21875 6.53125 0.21875 C 4.757812 0.21875 3.351562 -0.320312 2.3125 -1.40625 C 1.28125 -2.5 0.765625 -3.96875 0.765625 -5.8125 C 0.765625 -7.664062 1.28125 -9.132812 2.3125 -10.21875 C 3.351562 -11.300781 4.757812 -11.84375 6.53125 -11.84375 C 8.300781 -11.84375 9.707031 -11.300781 10.75 -10.21875 C 11.789062 -9.132812 12.3125 -7.664062 12.3125 -5.8125 C 12.3125 -3.96875 11.789062 -2.5 10.75 -1.40625 Z M 10.75 -1.40625 "/></g></g></g><g fill="#000000" fill-opacity="1"><g transform="translate(282.275624, 56.851593)"><g><path d="M 5.28125 -15.5 L 5.28125 -1.28125 C 5.28125 -0.9375 5.15625 -0.632812 4.90625 -0.375 C 4.65625 -0.125 4.363281 0 4.03125 0 L 3.484375 0 C 3.140625 0 2.84375 -0.125 2.59375 -0.375 C 2.34375 -0.632812 2.21875 -0.9375 2.21875 -1.28125 L 2.21875 -15.5 C 2.21875 -15.84375 2.34375 -16.140625 2.59375 -16.390625 C 2.84375 -16.640625 3.140625 -16.765625 3.484375 -16.765625 L 4.03125 -16.765625 C 4.363281 -16.765625 4.65625 -16.640625 4.90625 -16.390625 C 5.15625 -16.140625 5.28125 -15.84375 5.28125 -15.5 Z M 5.28125 -15.5 "/></g></g></g><g fill="#000000" fill-opacity="1"><g transform="translate(289.764392, 56.851593)"><g><path d="M 5.125 0.21875 C 3.851562 0.21875 2.921875 -0.140625 2.328125 -0.859375 C 1.734375 -1.578125 1.4375 -2.757812 1.4375 -4.40625 L 1.4375 -10.359375 C 1.4375 -10.691406 1.5625 -10.984375 1.8125 -11.234375 C 2.0625 -11.492188 2.359375 -11.625 2.703125 -11.625 L 3.015625 -11.625 C 3.359375 -11.625 3.65625 -11.492188 3.90625 -11.234375 C 4.164062 -10.984375 4.296875 -10.691406 4.296875 -10.359375 L 4.296875 -4.703125 C 4.296875 -3.703125 4.429688 -3.019531 4.703125 -2.65625 C 4.984375 -2.289062 5.457031 -2.109375 6.125 -2.109375 C 6.78125 -2.109375 7.378906 -2.4375 7.921875 -3.09375 C 8.472656 -3.757812 8.75 -4.539062 8.75 -5.4375 L 8.75 -10.359375 C 8.75 -10.691406 8.867188 -10.984375 9.109375 -11.234375 C 9.359375 -11.492188 9.65625 -11.625 10 -11.625 L 10.375 -11.625 C 10.71875 -11.625 11.015625 -11.492188 11.265625 -11.234375 C 11.523438 -10.984375 11.65625 -10.691406 11.65625 -10.359375 L 11.65625 -1.28125 C 11.65625 -0.9375 11.523438 -0.632812 11.265625 -0.375 C 11.015625 -0.125 10.71875 0 10.375 0 L 10.203125 0 C 9.835938 0 9.53125 -0.117188 9.28125 -0.359375 C 9.03125 -0.609375 8.894531 -0.914062 8.875 -1.28125 L 8.859375 -1.609375 C 8.859375 -1.617188 8.847656 -1.625 8.828125 -1.625 C 8.796875 -1.625 8.78125 -1.617188 8.78125 -1.609375 C 8.332031 -1.046875 7.785156 -0.597656 7.140625 -0.265625 C 6.492188 0.0546875 5.820312 0.21875 5.125 0.21875 Z M 5.125 0.21875 "/></g></g></g><g fill="#000000" fill-opacity="1"><g transform="translate(302.931206, 56.851593)"><g><path d="M 3.40625 -3.734375 L 3.40625 -8.828125 C 3.40625 -8.953125 3.34375 -9.015625 3.21875 -9.015625 L 2.0625 -9.015625 C 1.757812 -9.015625 1.503906 -9.117188 1.296875 -9.328125 C 1.085938 -9.546875 0.984375 -9.800781 0.984375 -10.09375 C 0.984375 -10.394531 1.085938 -10.648438 1.296875 -10.859375 C 1.503906 -11.066406 1.757812 -11.171875 2.0625 -11.171875 L 3.21875 -11.171875 C 3.34375 -11.171875 3.40625 -11.238281 3.40625 -11.375 L 3.40625 -14.15625 C 3.40625 -14.5 3.53125 -14.796875 3.78125 -15.046875 C 4.03125 -15.296875 4.328125 -15.421875 4.671875 -15.421875 L 5.09375 -15.421875 C 5.4375 -15.421875 5.734375 -15.296875 5.984375 -15.046875 C 6.242188 -14.796875 6.375 -14.5 6.375 -14.15625 L 6.375 -11.375 C 6.375 -11.238281 6.441406 -11.171875 6.578125 -11.171875 L 9.296875 -11.171875 C 9.597656 -11.171875 9.851562 -11.066406 10.0625 -10.859375 C 10.269531 -10.648438 10.375 -10.394531 10.375 -10.09375 C 10.375 -9.800781 10.269531 -9.546875 10.0625 -9.328125 C 9.851562 -9.117188 9.597656 -9.015625 9.296875 -9.015625 L 6.578125 -9.015625 C 6.441406 -9.015625 6.375 -8.953125 6.375 -8.828125 L 6.375 -4.25 C 6.375 -3.363281 6.484375 -2.769531 6.703125 -2.46875 C 6.929688 -2.164062 7.335938 -2.015625 7.921875 -2.015625 C 8.140625 -2.015625 8.457031 -2.046875 8.875 -2.109375 C 9.15625 -2.148438 9.421875 -2.09375 9.671875 -1.9375 C 9.921875 -1.78125 10.066406 -1.566406 10.109375 -1.296875 C 10.171875 -0.984375 10.117188 -0.695312 9.953125 -0.4375 C 9.785156 -0.175781 9.546875 -0.015625 9.234375 0.046875 C 8.566406 0.160156 7.925781 0.21875 7.3125 0.21875 C 5.9375 0.21875 4.941406 -0.0820312 4.328125 -0.6875 C 3.710938 -1.300781 3.40625 -2.316406 3.40625 -3.734375 Z M 3.40625 -3.734375 "/></g></g></g><g fill="#000000" fill-opacity="1"><g transform="translate(314.846169, 56.851593)"><g><path d="M 5.28125 -15.5 L 5.28125 -15.359375 C 5.28125 -15.015625 5.15625 -14.71875 4.90625 -14.46875 C 4.65625 -14.21875 4.363281 -14.09375 4.03125 -14.09375 L 3.484375 -14.09375 C 3.140625 -14.09375 2.84375 -14.21875 2.59375 -14.46875 C 2.34375 -14.71875 2.21875 -15.015625 2.21875 -15.359375 L 2.21875 -15.5 C 2.21875 -15.84375 2.34375 -16.140625 2.59375 -16.390625 C 2.84375 -16.640625 3.140625 -16.765625 3.484375 -16.765625 L 4.03125 -16.765625 C 4.363281 -16.765625 4.65625 -16.640625 4.90625 -16.390625 C 5.15625 -16.140625 5.28125 -15.84375 5.28125 -15.5 Z M 5.28125 -10.359375 L 5.28125 -1.28125 C 5.28125 -0.9375 5.15625 -0.632812 4.90625 -0.375 C 4.65625 -0.125 4.363281 0 4.03125 0 L 3.484375 0 C 3.140625 0 2.84375 -0.125 2.59375 -0.375 C 2.34375 -0.632812 2.21875 -0.9375 2.21875 -1.28125 L 2.21875 -10.359375 C 2.21875 -10.691406 2.34375 -10.984375 2.59375 -11.234375 C 2.84375 -11.492188 3.140625 -11.625 3.484375 -11.625 L 4.03125 -11.625 C 4.363281 -11.625 4.65625 -11.492188 4.90625 -11.234375 C 5.15625 -10.984375 5.28125 -10.691406 5.28125 -10.359375 Z M 5.28125 -10.359375 "/></g></g></g><g fill="#000000" fill-opacity="1"><g transform="translate(322.334937, 56.851593)"><g><path d="M 6.53125 -9.640625 C 5.632812 -9.640625 4.929688 -9.3125 4.421875 -8.65625 C 3.921875 -8.007812 3.671875 -7.0625 3.671875 -5.8125 C 3.671875 -4.5625 3.921875 -3.609375 4.421875 -2.953125 C 4.929688 -2.304688 5.632812 -1.984375 6.53125 -1.984375 C 7.4375 -1.984375 8.140625 -2.304688 8.640625 -2.953125 C 9.148438 -3.609375 9.40625 -4.5625 9.40625 -5.8125 C 9.40625 -7.0625 9.148438 -8.007812 8.640625 -8.65625 C 8.140625 -9.3125 7.4375 -9.640625 6.53125 -9.640625 Z M 10.75 -1.40625 C 9.707031 -0.320312 8.300781 0.21875 6.53125 0.21875 C 4.757812 0.21875 3.351562 -0.320312 2.3125 -1.40625 C 1.28125 -2.5 0.765625 -3.96875 0.765625 -5.8125 C 0.765625 -7.664062 1.28125 -9.132812 2.3125 -10.21875 C 3.351562 -11.300781 4.757812 -11.84375 6.53125 -11.84375 C 8.300781 -11.84375 9.707031 -11.300781 10.75 -10.21875 C 11.789062 -9.132812 12.3125 -7.664062 12.3125 -5.8125 C 12.3125 -3.96875 11.789062 -2.5 10.75 -1.40625 Z M 10.75 -1.40625 "/></g></g></g><g fill="#000000" fill-opacity="1"><g transform="translate(335.38998, 56.851593)"><g><path d="M 4.453125 -6.1875 L 4.453125 -1.28125 C 4.453125 -0.9375 4.320312 -0.632812 4.0625 -0.375 C 3.8125 -0.125 3.515625 0 3.171875 0 L 2.8125 0 C 2.46875 0 2.171875 -0.125 1.921875 -0.375 C 1.671875 -0.632812 1.546875 -0.9375 1.546875 -1.28125 L 1.546875 -10.359375 C 1.546875 -10.691406 1.671875 -10.984375 1.921875 -11.234375 C 2.171875 -11.492188 2.46875 -11.625 2.8125 -11.625 L 3 -11.625 C 3.351562 -11.625 3.65625 -11.5 3.90625 -11.25 C 4.164062 -11.007812 4.300781 -10.710938 4.3125 -10.359375 L 4.3125 -10.015625 C 4.3125 -10.003906 4.320312 -10 4.34375 -10 C 4.363281 -10 4.375 -10.003906 4.375 -10.015625 C 4.820312 -10.578125 5.375 -11.019531 6.03125 -11.34375 C 6.6875 -11.675781 7.367188 -11.84375 8.078125 -11.84375 C 9.410156 -11.84375 10.394531 -11.429688 11.03125 -10.609375 C 11.664062 -9.785156 11.984375 -8.429688 11.984375 -6.546875 L 11.984375 -1.28125 C 11.984375 -0.9375 11.851562 -0.632812 11.59375 -0.375 C 11.34375 -0.125 11.046875 0 10.703125 0 L 10.375 0 C 10.03125 0 9.734375 -0.125 9.484375 -0.375 C 9.242188 -0.632812 9.125 -0.9375 9.125 -1.28125 L 9.125 -6.265625 C 9.125 -7.546875 8.972656 -8.410156 8.671875 -8.859375 C 8.378906 -9.316406 7.84375 -9.546875 7.0625 -9.546875 C 6.40625 -9.546875 5.804688 -9.207031 5.265625 -8.53125 C 4.722656 -7.863281 4.453125 -7.082031 4.453125 -6.1875 Z M 4.453125 -6.1875 "/></g></g></g><g fill="#000000" fill-opacity="1"><g transform="translate(348.790095, 56.851593)"><g/></g></g><g clip-path="url(#f0e609c660)"><path fill="#ffffff" d="M 498.570312 66.136719 C 498.570312 66.96875 498.527344 67.800781 498.449219 68.632812 C 498.367188 69.460938 498.242188 70.285156 498.082031 71.105469 C 497.917969 71.921875 497.714844 72.730469 497.472656 73.527344 C 497.230469 74.324219 496.949219 75.109375 496.632812 75.882812 C 496.3125 76.652344 495.957031 77.40625 495.5625 78.140625 C 495.167969 78.875 494.742188 79.589844 494.277344 80.285156 C 493.816406 80.976562 493.320312 81.648438 492.789062 82.292969 C 492.261719 82.9375 491.699219 83.554688 491.109375 84.144531 C 490.519531 84.734375 489.902344 85.292969 489.257812 85.820312 C 488.613281 86.351562 487.945312 86.847656 487.25 87.3125 C 486.558594 87.773438 485.84375 88.203125 485.109375 88.59375 C 484.371094 88.988281 483.617188 89.34375 482.847656 89.664062 C 482.078125 89.984375 481.292969 90.265625 480.496094 90.507812 C 479.695312 90.75 478.890625 90.949219 478.070312 91.113281 C 477.253906 91.277344 476.429688 91.398438 475.597656 91.480469 C 474.769531 91.5625 473.9375 91.601562 473.101562 91.601562 C 472.269531 91.601562 471.4375 91.5625 470.605469 91.480469 C 469.777344 91.398438 468.953125 91.277344 468.132812 91.113281 C 467.316406 90.949219 466.507812 90.75 465.710938 90.507812 C 464.910156 90.265625 464.125 89.984375 463.355469 89.664062 C 462.585938 89.34375 461.832031 88.988281 461.097656 88.59375 C 460.363281 88.203125 459.648438 87.773438 458.953125 87.3125 C 458.261719 86.847656 457.589844 86.351562 456.945312 85.820312 C 456.300781 85.292969 455.683594 84.734375 455.09375 84.144531 C 454.503906 83.554688 453.945312 82.9375 453.414062 82.292969 C 452.886719 81.648438 452.390625 80.976562 451.925781 80.285156 C 451.464844 79.589844 451.035156 78.875 450.640625 78.140625 C 450.25 77.40625 449.890625 76.652344 449.574219 75.882812 C 449.253906 75.109375 448.972656 74.324219 448.730469 73.527344 C 448.488281 72.730469 448.285156 71.921875 448.125 71.105469 C 447.960938 70.285156 447.839844 69.460938 447.757812 68.632812 C 447.675781 67.800781 447.632812 66.96875 447.632812 66.136719 C 447.632812 65.300781 447.675781 64.46875 447.757812 63.640625 C 447.839844 62.808594 447.960938 61.984375 448.125 61.167969 C 448.285156 60.347656 448.488281 59.539062 448.730469 58.742188 C 448.972656 57.945312 449.253906 57.160156 449.574219 56.390625 C 449.890625 55.617188 450.25 54.867188 450.640625 54.128906 C 451.035156 53.394531 451.464844 52.679688 451.925781 51.984375 C 452.390625 51.292969 452.886719 50.625 453.414062 49.976562 C 453.945312 49.332031 454.503906 48.714844 455.09375 48.125 C 455.683594 47.535156 456.300781 46.976562 456.945312 46.449219 C 457.589844 45.917969 458.261719 45.421875 458.953125 44.960938 C 459.648438 44.496094 460.363281 44.066406 461.097656 43.675781 C 461.832031 43.28125 462.585938 42.925781 463.355469 42.605469 C 464.125 42.285156 464.910156 42.007812 465.710938 41.765625 C 466.507812 41.523438 467.316406 41.320312 468.132812 41.15625 C 468.953125 40.992188 469.777344 40.871094 470.605469 40.789062 C 471.4375 40.707031 472.269531 40.667969 473.101562 40.667969 C 473.9375 40.667969 474.769531 40.707031 475.597656 40.789062 C 476.429688 40.871094 477.253906 40.992188 478.070312 41.15625 C 478.890625 41.320312 479.695312 41.523438 480.496094 41.765625 C 481.292969 42.007812 482.078125 42.285156 482.847656 42.605469 C 483.617188 42.925781 484.371094 43.28125 485.109375 43.675781 C 485.84375 44.066406 486.558594 44.496094 487.25 44.960938 C 487.945312 45.421875 488.613281 45.917969 489.257812 46.449219 C 489.902344 46.976562 490.519531 47.535156 491.109375 48.125 C 491.699219 48.714844 492.261719 49.332031 492.789062 49.976562 C 493.320312 50.625 493.816406 51.292969 494.277344 51.984375 C 494.742188 52.679688 495.167969 53.394531 495.5625 54.128906 C 495.957031 54.867188 496.3125 55.617188 496.632812 56.390625 C 496.949219 57.160156 497.230469 57.945312 497.472656 58.742188 C 497.714844 59.539062 497.917969 60.347656 498.082031 61.167969 C 498.242188 61.984375 498.367188 62.808594 498.449219 63.640625 C 498.527344 64.46875 498.570312 65.300781 498.570312 66.136719 Z M 498.570312 66.136719 " fill-opacity="1" fill-rule="nonzero"/></g><g fill="#000000" fill-opacity="1"><g transform="translate(450.88448, 36.14738)"><g><path d="M 4.890625 0.125 C 3.535156 0.125 2.445312 -0.273438 1.625 -1.078125 C 0.8125 -1.890625 0.40625 -2.976562 0.40625 -4.34375 C 0.40625 -5.707031 0.804688 -6.789062 1.609375 -7.59375 C 2.410156 -8.394531 3.503906 -8.796875 4.890625 -8.796875 C 5.671875 -8.796875 6.40625 -8.640625 7.09375 -8.328125 C 7.257812 -8.253906 7.367188 -8.125 7.421875 -7.9375 C 7.484375 -7.757812 7.476562 -7.582031 7.40625 -7.40625 C 7.34375 -7.25 7.226562 -7.140625 7.0625 -7.078125 C 6.894531 -7.023438 6.738281 -7.035156 6.59375 -7.109375 C 6.09375 -7.335938 5.578125 -7.453125 5.046875 -7.453125 C 4.148438 -7.453125 3.4375 -7.171875 2.90625 -6.609375 C 2.375 -6.054688 2.109375 -5.300781 2.109375 -4.34375 C 2.109375 -3.382812 2.378906 -2.625 2.921875 -2.0625 C 3.472656 -1.5 4.179688 -1.21875 5.046875 -1.21875 C 5.578125 -1.21875 6.09375 -1.332031 6.59375 -1.5625 C 6.738281 -1.632812 6.894531 -1.644531 7.0625 -1.59375 C 7.226562 -1.539062 7.34375 -1.429688 7.40625 -1.265625 C 7.476562 -1.097656 7.484375 -0.921875 7.421875 -0.734375 C 7.367188 -0.554688 7.257812 -0.425781 7.09375 -0.34375 C 6.40625 -0.03125 5.671875 0.125 4.890625 0.125 Z M 4.890625 0.125 "/></g></g></g><g fill="#000000" fill-opacity="1"><g transform="translate(459.045675, 36.14738)"><g><path d="M 6.671875 -6.609375 C 6.191406 -7.160156 5.546875 -7.4375 4.734375 -7.4375 C 3.929688 -7.4375 3.289062 -7.160156 2.8125 -6.609375 C 2.34375 -6.066406 2.109375 -5.304688 2.109375 -4.328125 C 2.109375 -3.359375 2.34375 -2.601562 2.8125 -2.0625 C 3.289062 -1.519531 3.929688 -1.25 4.734375 -1.25 C 5.546875 -1.25 6.191406 -1.519531 6.671875 -2.0625 C 7.148438 -2.601562 7.390625 -3.359375 7.390625 -4.328125 C 7.390625 -5.304688 7.148438 -6.066406 6.671875 -6.609375 Z M 7.890625 -1.078125 C 7.109375 -0.273438 6.054688 0.125 4.734375 0.125 C 3.421875 0.125 2.367188 -0.273438 1.578125 -1.078125 C 0.796875 -1.890625 0.40625 -2.976562 0.40625 -4.34375 C 0.40625 -5.707031 0.796875 -6.789062 1.578125 -7.59375 C 2.367188 -8.394531 3.421875 -8.796875 4.734375 -8.796875 C 6.054688 -8.796875 7.109375 -8.394531 7.890625 -7.59375 C 8.679688 -6.789062 9.078125 -5.707031 9.078125 -4.34375 C 9.078125 -2.976562 8.679688 -1.890625 7.890625 -1.078125 Z M 7.890625 -1.078125 "/></g></g></g><g fill="#000000" fill-opacity="1"><g transform="translate(468.525492, 36.14738)"><g><path d="M 3.53125 -7.421875 C 3.03125 -7.421875 2.460938 -7.257812 1.828125 -6.9375 C 1.679688 -6.851562 1.523438 -6.835938 1.359375 -6.890625 C 1.203125 -6.953125 1.09375 -7.066406 1.03125 -7.234375 L 1.015625 -7.28125 C 0.953125 -7.488281 0.953125 -7.679688 1.015625 -7.859375 C 1.085938 -8.046875 1.210938 -8.179688 1.390625 -8.265625 C 2.128906 -8.617188 2.921875 -8.796875 3.765625 -8.796875 C 4.691406 -8.796875 5.40625 -8.570312 5.90625 -8.125 C 6.40625 -7.6875 6.65625 -7.066406 6.65625 -6.265625 C 6.65625 -5.523438 6.421875 -4.8125 5.953125 -4.125 C 5.484375 -3.4375 4.566406 -2.519531 3.203125 -1.375 L 3.1875 -1.359375 C 3.1875 -1.347656 3.191406 -1.34375 3.203125 -1.34375 L 6 -1.34375 C 6.1875 -1.34375 6.347656 -1.273438 6.484375 -1.140625 C 6.617188 -1.015625 6.6875 -0.859375 6.6875 -0.671875 C 6.6875 -0.492188 6.617188 -0.335938 6.484375 -0.203125 C 6.347656 -0.0664062 6.1875 0 6 0 L 1.640625 0 C 1.460938 0 1.304688 -0.0664062 1.171875 -0.203125 C 1.035156 -0.335938 0.96875 -0.492188 0.96875 -0.671875 C 0.96875 -1.128906 1.140625 -1.492188 1.484375 -1.765625 C 2.859375 -2.859375 3.78125 -3.707031 4.25 -4.3125 C 4.71875 -4.925781 4.953125 -5.519531 4.953125 -6.09375 C 4.953125 -6.976562 4.476562 -7.421875 3.53125 -7.421875 Z M 3.53125 -7.421875 "/></g></g></g><g fill="#000000" fill-opacity="1"><g transform="translate(476.128351, 36.14738)"><g/></g></g><g fill="#000000" fill-opacity="1"><g transform="translate(479.739706, 36.14738)"><g><path d="M 2.40625 -2.703125 L 2.40625 -0.671875 C 2.40625 -0.492188 2.335938 -0.335938 2.203125 -0.203125 C 2.066406 -0.0664062 1.90625 0 1.71875 0 L 1.5 0 C 1.3125 0 1.148438 -0.0664062 1.015625 -0.203125 C 0.890625 -0.335938 0.828125 -0.492188 0.828125 -0.671875 L 0.828125 -5.5 C 0.828125 -5.6875 0.890625 -5.847656 1.015625 -5.984375 C 1.148438 -6.117188 1.3125 -6.1875 1.5 -6.1875 L 1.625 -6.1875 C 1.8125 -6.1875 1.96875 -6.117188 2.09375 -5.984375 C 2.226562 -5.847656 2.300781 -5.6875 2.3125 -5.5 L 2.3125 -5 C 2.3125 -5 2.316406 -5 2.328125 -5 C 2.335938 -5 2.347656 -5 2.359375 -5 C 2.929688 -5.695312 3.660156 -6.113281 4.546875 -6.25 C 4.710938 -6.28125 4.859375 -6.234375 4.984375 -6.109375 C 5.117188 -5.992188 5.1875 -5.847656 5.1875 -5.671875 C 5.1875 -5.492188 5.117188 -5.34375 4.984375 -5.21875 C 4.859375 -5.09375 4.710938 -5.019531 4.546875 -5 C 3.847656 -4.894531 3.316406 -4.640625 2.953125 -4.234375 C 2.585938 -3.835938 2.40625 -3.328125 2.40625 -2.703125 Z M 2.40625 -2.703125 "/></g></g></g><g fill="#000000" fill-opacity="1"><g transform="translate(485.489368, 36.14738)"><g><path d="M 3.90625 -2.953125 C 3.28125 -2.953125 2.800781 -2.847656 2.46875 -2.640625 C 2.132812 -2.429688 1.96875 -2.15625 1.96875 -1.8125 C 1.96875 -1.5625 2.039062 -1.363281 2.1875 -1.21875 C 2.34375 -1.082031 2.550781 -1.015625 2.8125 -1.015625 C 3.269531 -1.015625 3.648438 -1.160156 3.953125 -1.453125 C 4.265625 -1.742188 4.421875 -2.113281 4.421875 -2.5625 L 4.421875 -2.859375 C 4.421875 -2.921875 4.390625 -2.953125 4.328125 -2.953125 Z M 2.421875 0.125 C 1.847656 0.125 1.382812 -0.0351562 1.03125 -0.359375 C 0.6875 -0.679688 0.515625 -1.128906 0.515625 -1.703125 C 0.515625 -2.390625 0.804688 -2.941406 1.390625 -3.359375 C 1.972656 -3.773438 2.8125 -3.984375 3.90625 -3.984375 L 4.328125 -3.984375 C 4.390625 -3.984375 4.421875 -4.015625 4.421875 -4.078125 C 4.410156 -4.472656 4.320312 -4.75 4.15625 -4.90625 C 3.988281 -5.070312 3.695312 -5.15625 3.28125 -5.15625 C 2.726562 -5.15625 2.175781 -5.050781 1.625 -4.84375 C 1.488281 -4.800781 1.351562 -4.8125 1.21875 -4.875 C 1.082031 -4.945312 1 -5.054688 0.96875 -5.203125 C 0.9375 -5.367188 0.960938 -5.523438 1.046875 -5.671875 C 1.128906 -5.816406 1.25 -5.921875 1.40625 -5.984375 C 2.03125 -6.191406 2.664062 -6.296875 3.3125 -6.296875 C 4.257812 -6.296875 4.9375 -6.113281 5.34375 -5.75 C 5.757812 -5.382812 5.96875 -4.785156 5.96875 -3.953125 L 5.96875 -1.671875 C 5.96875 -1.335938 5.992188 -1.003906 6.046875 -0.671875 C 6.066406 -0.503906 6.019531 -0.347656 5.90625 -0.203125 C 5.800781 -0.0664062 5.660156 0 5.484375 0 L 5.359375 0 C 5.160156 0 4.984375 -0.0625 4.828125 -0.1875 C 4.679688 -0.3125 4.601562 -0.472656 4.59375 -0.671875 C 4.582031 -0.722656 4.578125 -0.796875 4.578125 -0.890625 C 4.578125 -0.910156 4.570312 -0.921875 4.5625 -0.921875 C 4.550781 -0.921875 4.546875 -0.914062 4.546875 -0.90625 C 4.316406 -0.582031 4.015625 -0.328125 3.640625 -0.140625 C 3.265625 0.0351562 2.859375 0.125 2.421875 0.125 Z M 2.421875 0.125 "/></g></g></g><g fill="#000000" fill-opacity="1"><g transform="translate(492.225029, 36.14738)"><g><path d="M 1.8125 -1.984375 L 1.8125 -4.703125 C 1.8125 -4.765625 1.78125 -4.796875 1.71875 -4.796875 L 1.09375 -4.796875 C 0.9375 -4.796875 0.800781 -4.851562 0.6875 -4.96875 C 0.570312 -5.082031 0.515625 -5.21875 0.515625 -5.375 C 0.515625 -5.53125 0.570312 -5.664062 0.6875 -5.78125 C 0.800781 -5.894531 0.9375 -5.953125 1.09375 -5.953125 L 1.71875 -5.953125 C 1.78125 -5.953125 1.8125 -5.984375 1.8125 -6.046875 L 1.8125 -7.53125 C 1.8125 -7.707031 1.878906 -7.863281 2.015625 -8 C 2.148438 -8.132812 2.304688 -8.203125 2.484375 -8.203125 L 2.71875 -8.203125 C 2.894531 -8.203125 3.050781 -8.132812 3.1875 -8 C 3.320312 -7.863281 3.390625 -7.707031 3.390625 -7.53125 L 3.390625 -6.046875 C 3.390625 -5.984375 3.425781 -5.953125 3.5 -5.953125 L 4.953125 -5.953125 C 5.109375 -5.953125 5.238281 -5.894531 5.34375 -5.78125 C 5.457031 -5.664062 5.515625 -5.53125 5.515625 -5.375 C 5.515625 -5.21875 5.457031 -5.082031 5.34375 -4.96875 C 5.238281 -4.851562 5.109375 -4.796875 4.953125 -4.796875 L 3.5 -4.796875 C 3.425781 -4.796875 3.390625 -4.765625 3.390625 -4.703125 L 3.390625 -2.265625 C 3.390625 -1.796875 3.445312 -1.476562 3.5625 -1.3125 C 3.6875 -1.144531 3.898438 -1.0625 4.203125 -1.0625 C 4.328125 -1.0625 4.5 -1.082031 4.71875 -1.125 C 4.875 -1.144531 5.015625 -1.113281 5.140625 -1.03125 C 5.273438 -0.945312 5.351562 -0.832031 5.375 -0.6875 C 5.40625 -0.519531 5.375 -0.367188 5.28125 -0.234375 C 5.195312 -0.0976562 5.070312 -0.0078125 4.90625 0.03125 C 4.550781 0.09375 4.210938 0.125 3.890625 0.125 C 3.160156 0.125 2.628906 -0.0351562 2.296875 -0.359375 C 1.972656 -0.691406 1.8125 -1.234375 1.8125 -1.984375 Z M 1.8125 -1.984375 "/></g></g></g><g fill="#000000" fill-opacity="1"><g transform="translate(498.55679, 36.14738)"><g><path d="M 3.40625 -5.1875 C 2.988281 -5.1875 2.648438 -5.054688 2.390625 -4.796875 C 2.140625 -4.535156 2 -4.164062 1.96875 -3.6875 C 1.96875 -3.625 2 -3.59375 2.0625 -3.59375 L 4.75 -3.59375 C 4.8125 -3.59375 4.84375 -3.625 4.84375 -3.6875 C 4.8125 -4.164062 4.671875 -4.535156 4.421875 -4.796875 C 4.179688 -5.054688 3.84375 -5.1875 3.40625 -5.1875 Z M 3.5625 0.125 C 2.625 0.125 1.863281 -0.160156 1.28125 -0.734375 C 0.695312 -1.316406 0.40625 -2.101562 0.40625 -3.09375 C 0.40625 -4.09375 0.671875 -4.875 1.203125 -5.4375 C 1.742188 -6.007812 2.476562 -6.296875 3.40625 -6.296875 C 4.300781 -6.296875 5.003906 -6.03125 5.515625 -5.5 C 6.035156 -4.96875 6.300781 -4.203125 6.3125 -3.203125 C 6.3125 -3.003906 6.238281 -2.84375 6.09375 -2.71875 C 5.957031 -2.59375 5.789062 -2.53125 5.59375 -2.53125 L 2.0625 -2.53125 C 1.976562 -2.53125 1.945312 -2.492188 1.96875 -2.421875 C 2.03125 -1.984375 2.21875 -1.640625 2.53125 -1.390625 C 2.84375 -1.140625 3.234375 -1.015625 3.703125 -1.015625 C 4.109375 -1.015625 4.515625 -1.082031 4.921875 -1.21875 C 5.066406 -1.28125 5.207031 -1.28125 5.34375 -1.21875 C 5.488281 -1.15625 5.585938 -1.050781 5.640625 -0.90625 C 5.691406 -0.75 5.679688 -0.59375 5.609375 -0.4375 C 5.535156 -0.289062 5.421875 -0.191406 5.265625 -0.140625 C 4.742188 0.0351562 4.175781 0.125 3.5625 0.125 Z M 3.5625 0.125 "/></g></g></g><g fill="#000000" fill-opacity="1"><g transform="translate(521.654334, 60.763673)"><g><path d="M 7.171875 -1.34375 C 7.328125 -1.1875 7.40625 -1 7.40625 -0.78125 C 7.40625 -0.570312 7.328125 -0.390625 7.171875 -0.234375 C 7.023438 -0.078125 6.84375 0 6.625 0 L 1.890625 0 C 1.679688 0 1.492188 -0.078125 1.328125 -0.234375 C 1.171875 -0.390625 1.09375 -0.578125 1.09375 -0.796875 L 1.09375 -9.375 C 1.09375 -9.582031 1.171875 -9.765625 1.328125 -9.921875 C 1.492188 -10.078125 1.679688 -10.15625 1.890625 -10.15625 L 6.625 -10.15625 C 6.84375 -10.15625 7.023438 -10.078125 7.171875 -9.921875 C 7.328125 -9.765625 7.40625 -9.578125 7.40625 -9.359375 C 7.40625 -9.148438 7.328125 -8.96875 7.171875 -8.8125 C 7.023438 -8.664062 6.84375 -8.59375 6.625 -8.59375 L 3.171875 -8.59375 C 3.085938 -8.59375 3.046875 -8.550781 3.046875 -8.46875 L 3.046875 -6.21875 C 3.046875 -6.132812 3.085938 -6.09375 3.171875 -6.09375 L 6.390625 -6.09375 C 6.597656 -6.09375 6.769531 -6.019531 6.90625 -5.875 C 7.050781 -5.738281 7.125 -5.5625 7.125 -5.34375 C 7.125 -5.144531 7.050781 -4.972656 6.90625 -4.828125 C 6.769531 -4.679688 6.597656 -4.609375 6.390625 -4.609375 L 3.171875 -4.609375 C 3.085938 -4.609375 3.046875 -4.566406 3.046875 -4.484375 L 3.046875 -1.703125 C 3.046875 -1.617188 3.085938 -1.578125 3.171875 -1.578125 L 6.625 -1.578125 C 6.84375 -1.578125 7.023438 -1.5 7.171875 -1.34375 Z M 7.171875 -1.34375 "/></g></g></g><g fill="#000000" fill-opacity="1"><g transform="translate(530.017787, 60.763673)"><g><path d="M 6 0.140625 C 4.320312 0.140625 2.976562 -0.328125 1.96875 -1.265625 C 0.96875 -2.210938 0.46875 -3.484375 0.46875 -5.078125 C 0.46875 -6.679688 0.953125 -7.953125 1.921875 -8.890625 C 2.890625 -9.828125 4.21875 -10.296875 5.90625 -10.296875 C 6.894531 -10.296875 7.757812 -10.117188 8.5 -9.765625 C 8.695312 -9.679688 8.828125 -9.535156 8.890625 -9.328125 C 8.960938 -9.117188 8.957031 -8.914062 8.875 -8.71875 C 8.800781 -8.53125 8.664062 -8.398438 8.46875 -8.328125 C 8.28125 -8.265625 8.09375 -8.273438 7.90625 -8.359375 C 7.351562 -8.617188 6.742188 -8.75 6.078125 -8.75 C 4.941406 -8.75 4.050781 -8.421875 3.40625 -7.765625 C 2.769531 -7.109375 2.453125 -6.210938 2.453125 -5.078125 C 2.453125 -3.953125 2.785156 -3.054688 3.453125 -2.390625 C 4.128906 -1.734375 5.039062 -1.40625 6.1875 -1.40625 C 6.707031 -1.40625 7.179688 -1.488281 7.609375 -1.65625 C 7.679688 -1.6875 7.71875 -1.738281 7.71875 -1.8125 L 7.71875 -4.484375 C 7.71875 -4.566406 7.675781 -4.609375 7.59375 -4.609375 L 5.625 -4.609375 C 5.414062 -4.609375 5.238281 -4.679688 5.09375 -4.828125 C 4.957031 -4.972656 4.890625 -5.144531 4.890625 -5.34375 C 4.890625 -5.5625 4.957031 -5.738281 5.09375 -5.875 C 5.238281 -6.019531 5.414062 -6.09375 5.625 -6.09375 L 8.78125 -6.09375 C 9 -6.09375 9.179688 -6.015625 9.328125 -5.859375 C 9.484375 -5.703125 9.5625 -5.515625 9.5625 -5.296875 L 9.5625 -1.390625 C 9.5625 -1.148438 9.492188 -0.925781 9.359375 -0.71875 C 9.234375 -0.519531 9.0625 -0.382812 8.84375 -0.3125 C 7.976562 -0.0078125 7.03125 0.140625 6 0.140625 Z M 6 0.140625 "/></g></g></g></svg>